<svg xmlns="http://www.w3.org/2000/svg" viewBox="0 0 256 256" role="img" aria-labelledby="title">
  <title id="title">DNS Switcher Pro</title>
  <defs><linearGradient id="background" x1="28" y1="18" x2="229" y2="239" gradientUnits="userSpaceOnUse"><stop stop-color="#16213a"/><stop offset="1" stop-color="#080b13"/></linearGradient><linearGradient id="switch" x1="48" y1="72" x2="207" y2="183" gradientUnits="userSpaceOnUse"><stop stop-color="#62c5ff"/><stop offset="1" stop-color="#9b7cff"/></linearGradient></defs>
  <rect x="8" y="8" width="240" height="240" rx="58" fill="url(#background)"/><rect x="9" y="9" width="238" height="238" rx="57" fill="none" stroke="#fff" stroke-opacity=".12" stroke-width="2"/>
  <path d="M58 105c11-28 37-47 68-48 28-1 54 12 70 34" fill="none" stroke="#62c5ff" stroke-width="13" stroke-linecap="round"/><path d="m185 70 14 23-27 2" fill="none" stroke="#62c5ff" stroke-width="13" stroke-linecap="round" stroke-linejoin="round"/>
  <path d="M198 151c-11 28-37 47-68 48-28 1-54-12-70-34" fill="none" stroke="#9b7cff" stroke-width="13" stroke-linecap="round"/><path d="m71 186-14-23 27-2" fill="none" stroke="#9b7cff" stroke-width="13" stroke-linecap="round" stroke-linejoin="round"/>
  <path d="M128 98 158 115v34l-30 17-30-17v-34z" fill="#10192b" stroke="url(#switch)" stroke-width="7" stroke-linejoin="round"/><circle cx="128" cy="132" r="11" fill="#71d7ff"/><circle cx="57" cy="105" r="10" fill="#62c5ff" stroke="#d9f4ff" stroke-width="4"/><circle cx="199" cy="151" r="10" fill="#9b7cff" stroke="#eee8ff" stroke-width="4"/>
</svg>
